REM DIRINDEX 1\4,1\2\5,1\2\6,1\2\7,1\3\8,1\3\9,1\3\10,1\3\11
REM DIRNAME folder01,folder02,folder03,folder04,folder05,folder06,folder07,folder08,folder09,folder10,folder11
TITLE ""
FILE "t_k_119-128.mp3" MP3
  TRACK 01 AUDIO
    TITLE "5:cjc108_0356"
    INDEX 01 00:00:00
  TRACK 02 AUDIO
    TITLE "0:"
    INDEX 01 00:00:72
  TRACK 03 AUDIO
    TITLE "6:cjc108_0357"
    INDEX 01 00:01:15
  TRACK 04 AUDIO
    TITLE "0:"
    INDEX 01 00:03:72
  TRACK 05 AUDIO
    TITLE "7:cjc108_0358"
    INDEX 01 00:04:11
  TRACK 06 AUDIO
    TITLE "0:"
    INDEX 01 00:10:29
  TRACK 07 AUDIO
    TITLE "5:cjc108_0359"
    INDEX 01 00:11:09
  TRACK 08 AUDIO
    TITLE "0:"
    INDEX 01 00:12:32
  TRACK 09 AUDIO
    TITLE "6:cjc108_0360"
    INDEX 01 00:12:44
  TRACK 10 AUDIO
    TITLE "0:"
    INDEX 01 00:13:37
  TRACK 11 AUDIO
    TITLE "7:cjc108_0361"
    INDEX 01 00:13:63
  TRACK 12 AUDIO
    TITLE "0:"
    INDEX 01 00:18:07
  TRACK 13 AUDIO
    TITLE "5:cjc108_0362"
    INDEX 01 00:18:72
  TRACK 14 AUDIO
    TITLE "0:"
    INDEX 01 00:20:18
  TRACK 15 AUDIO
    TITLE "6:cjc108_0363"
    INDEX 01 00:20:24
  TRACK 16 AUDIO
    TITLE "0:"
    INDEX 01 00:22:27
  TRACK 17 AUDIO
    TITLE "7:cjc108_0364"
    INDEX 01 00:22:46
  TRACK 18 AUDIO
    TITLE "0:"
    INDEX 01 00:27:61
  TRACK 19 AUDIO
    TITLE "5:cjc108_0365"
    INDEX 01 00:28:51
  TRACK 20 AUDIO
    TITLE "0:"
    INDEX 01 00:29:58
  TRACK 21 AUDIO
    TITLE "6:cjc108_0366"
    INDEX 01 00:29:74
  TRACK 22 AUDIO
    TITLE "0:"
    INDEX 01 00:31:16
  TRACK 23 AUDIO
    TITLE "7:cjc108_0367"
    INDEX 01 00:31:37
  TRACK 24 AUDIO
    TITLE "0:"
    INDEX 01 00:36:17
  TRACK 25 AUDIO
    TITLE "5:cjc108_0368"
    INDEX 01 00:37:03
  TRACK 26 AUDIO
    TITLE "0:"
    INDEX 01 00:38:12
  TRACK 27 AUDIO
    TITLE "6:cjc108_0369"
    INDEX 01 00:38:28
  TRACK 28 AUDIO
    TITLE "0:"
    INDEX 01 00:40:44
  TRACK 29 AUDIO
    TITLE "7:cjc108_0370"
    INDEX 01 00:40:64
  TRACK 30 AUDIO
    TITLE "0:"
    INDEX 01 00:45:55
  TRACK 31 AUDIO
    TITLE "5:cjc108_0371"
    INDEX 01 00:46:47
  TRACK 32 AUDIO
    TITLE "0:"
    INDEX 01 00:47:50
  TRACK 33 AUDIO
    TITLE "6:cjc108_0372"
    INDEX 01 00:47:66
  TRACK 34 AUDIO
    TITLE "0:"
    INDEX 01 00:49:53
  TRACK 35 AUDIO
    TITLE "7:cjc108_0373"
    INDEX 01 00:49:67
  TRACK 36 AUDIO
    TITLE "0:"
    INDEX 01 00:55:38
  TRACK 37 AUDIO
    TITLE "5:cjc108_0374"
    INDEX 01 00:56:29
  TRACK 38 AUDIO
    TITLE "0:"
    INDEX 01 00:57:35
  TRACK 39 AUDIO
    TITLE "6:cjc108_0375"
    INDEX 01 00:57:64
  TRACK 40 AUDIO
    TITLE "0:"
    INDEX 01 00:59:12
  TRACK 41 AUDIO
    TITLE "7:cjc108_0376"
    INDEX 01 00:59:24
  TRACK 42 AUDIO
    TITLE "0:"
    INDEX 01 01:04:43
  TRACK 43 AUDIO
    TITLE "5:cjc108_0377"
    INDEX 01 01:05:24
  TRACK 44 AUDIO
    TITLE "0:"
    INDEX 01 01:06:36
  TRACK 45 AUDIO
    TITLE "6:cjc108_0378"
    INDEX 01 01:06:40
  TRACK 46 AUDIO
    TITLE "0:"
    INDEX 01 01:08:03
  TRACK 47 AUDIO
    TITLE "7:cjc108_0379"
    INDEX 01 01:08:23
  TRACK 48 AUDIO
    TITLE "0:"
    INDEX 01 01:13:45
  TRACK 49 AUDIO
    TITLE "5:cjc108_0380"
    INDEX 01 01:14:27
  TRACK 50 AUDIO
    TITLE "0:"
    INDEX 01 01:15:46
  TRACK 51 AUDIO
    TITLE "6:cjc108_0381"
    INDEX 01 01:15:54
  TRACK 52 AUDIO
    TITLE "0:"
    INDEX 01 01:18:02
  TRACK 53 AUDIO
    TITLE "7:cjc108_0382"
    INDEX 01 01:18:17
  TRACK 54 AUDIO
    TITLE "0:"
    INDEX 01 01:25:74
  TRACK 55 AUDIO
    TITLE "5:cjc108_0383"
    INDEX 01 01:26:48
  TRACK 56 AUDIO
    TITLE "0:"
    INDEX 01 01:27:71
  TRACK 57 AUDIO
    TITLE "6:cjc108_0384"
    INDEX 01 01:28:04
  TRACK 58 AUDIO
    TITLE "0:"
    INDEX 01 01:29:25
  TRACK 59 AUDIO
    TITLE "7:cjc108_0385"
    INDEX 01 01:29:41
  TRACK 60 AUDIO
    TITLE "0:"
    INDEX 01 01:35:43
